<svg version="1.1" xmlns="http://www.w3.org/2000/svg" xmlns:xlink="http://www.w3.org/1999/xlink" width="512px" height="512px" viewBox="0,0,256,256"><g fill="#d8ebb5" fill-rule="nonzero" stroke="none" stroke-width="1" stroke-linecap="butt" stroke-linejoin="miter" stroke-miterlimit="10" stroke-dasharray="" stroke-dashoffset="0" font-family="none" font-weight="none" font-size="none" text-anchor="none" style="mix-blend-mode: normal"><g transform="scale(0.5,0.5)"><g id="_x32_5_x2C__No_Smoking_x2C__smoking_x2C__cugrette_x2C__smoke_x2C__prohibition"><g><path d="M256,0c-141.504,0 -256,114.517 -256,256c0,141.504 114.517,256 256,256c141.504,0 256,-114.517 256,-256c0,-141.504 -114.517,-256 -256,-256zM492,256c0,61.476 -23.636,117.528 -62.287,159.571l-114.427,-114.428c9.559,0 115.047,0 136.51,0c5.522,0 10,-4.477 10,-10v-70.286c0,-5.523 -4.478,-10 -10,-10c-5.971,0 -220.524,0 -226.796,0l-128.571,-128.57c42.043,-38.651 98.095,-62.287 159.571,-62.287c130.131,0 236,105.869 236,236zM411.592,230.857h30.204v50.286h-30.204zM20,256c0,-61.476 23.636,-117.528 62.287,-159.571l114.428,114.428c-13.88,0 -106.852,0 -136.51,0c-5.522,0 -10,4.477 -10,10v70.286c0,5.523 4.478,10 10,10c9.057,0 215.76,0 226.796,0l128.57,128.57c-42.043,38.651 -98.095,62.287 -159.571,62.287c-130.131,0 -236,-105.869 -236,-236zM70.204,281.143v-50.286h80.408v50.286z"></path><path d="M366.376,176.259l19.889,-2.775c5.507,-0.77 10.606,3.063 11.378,8.591c0.76,5.445 5.784,9.285 11.286,8.523c5.47,-0.763 9.285,-5.816 8.522,-11.286c-2.298,-16.469 -17.497,-27.941 -33.95,-25.636l-19.889,2.775c-5.538,0.773 -10.611,-3.092 -11.378,-8.592c-0.772,-5.519 3.074,-10.609 8.591,-11.377c16.428,-2.292 27.928,-17.522 25.637,-33.951l-1.388,-9.945c-0.765,-5.469 -5.81,-9.287 -11.286,-8.521c-5.47,0.763 -9.285,5.816 -8.522,11.286l1.388,9.944c0.769,5.506 -3.086,10.611 -8.592,11.379c-16.468,2.298 -27.933,17.484 -25.636,33.95c2.298,16.473 17.494,27.937 33.95,25.635z"></path></g></g><g id="Layer_1" font-family="Inter, apple-system, BlinkMacSystemFont, &quot;Helvetica Neue&quot;, &quot;Segoe UI&quot;, &quot;Fira Sans&quot;, Roboto, Oxygen, Ubuntu, &quot;Droid Sans&quot;, Arial, sans-serif" font-weight="400" font-size="16" text-anchor="start"></g></g></g></svg>