<svg version="1.1" xmlns="http://www.w3.org/2000/svg" xmlns:xlink="http://www.w3.org/1999/xlink" width="236.543" height="251.872" viewBox="0,0,240.41667,256"><g fill="#d8ebb5" fill-rule="nonzero" stroke="none" stroke-width="1" stroke-linecap="butt" stroke-linejoin="miter" stroke-miterlimit="10" stroke-dasharray="" stroke-dashoffset="0" font-family="none" font-weight="none" font-size="none" text-anchor="none" style="mix-blend-mode: normal"><g transform="translate(0.18233,0.53399) scale(1.01639,1.01639)"><path d="M127.761,58.233c-19.633,1.295 -39.806,11.188 -54.677,28.781c-14.528,17.185 -20.968,38.135 -19.403,57.341c4.003,1.8 9.115,4.423 15.591,8.081c25.98,14.674 41.656,31.963 50.934,45.956c18.443,-2.228 37.042,-11.959 50.98,-28.447c12.375,-14.638 18.885,-32.01 19.58,-48.71c-17.998,-49.669 -62.966,-62.99 -63.005,-63.002zM106.085,217.364c-0.036,-0.616 -0.079,-1.241 -0.13,-1.878c-0.024,-0.307 -0.05,-0.614 -0.079,-0.926c-0.06,-0.655 -0.13,-1.323 -0.207,-2c-0.031,-0.268 -0.057,-0.53 -0.089,-0.802c-0.113,-0.921 -0.239,-1.86 -0.383,-2.821c-0.042,-0.279 -0.091,-0.568 -0.136,-0.852c-0.111,-0.712 -0.229,-1.432 -0.358,-2.165c-0.068,-0.387 -0.14,-0.778 -0.213,-1.17c-0.126,-0.679 -0.261,-1.367 -0.401,-2.063c-0.079,-0.389 -0.155,-0.774 -0.238,-1.168c-0.197,-0.938 -0.408,-1.891 -0.632,-2.858c-0.031,-0.132 -0.055,-0.256 -0.086,-0.389c0,-0.001 0,-0.002 -0.001,-0.003c0.031,0.005 0.063,0.007 0.095,0.012c-18.797,-25.621 -43.63,-34.194 -47.461,-35.396c-12.523,-2.015 -30.223,-3.241 -40.978,3.075c-0.012,0.008 -0.024,0.014 -0.036,0.021c-0.997,0.587 -1.933,1.24 -2.799,1.963c-0.042,0.036 -0.084,0.072 -0.126,0.108c-0.824,0.699 -1.583,1.464 -2.271,2.298c-0.066,0.08 -0.129,0.161 -0.193,0.241c-0.315,0.396 -0.618,0.805 -0.9,1.233c-0.013,0.019 -0.027,0.037 -0.04,0.056c-0.283,0.435 -0.542,0.889 -0.79,1.354c-0.063,0.121 -0.125,0.242 -0.187,0.365c-0.231,0.462 -0.452,0.937 -0.647,1.431c-0.006,0.016 -0.014,0.03 -0.02,0.045c-4.113,10.502 2.254,23.854 10.826,24.29c0.285,0.015 0.574,0.015 0.863,0c0.291,-0.014 0.583,-0.044 0.878,-0.09c2.349,-0.361 4.815,-1.457 7.242,-2.819c-0.767,3.297 -0.964,7.328 -0.128,12.232c5.777,33.921 32.488,8.942 40.282,23.341c7,12.935 11.967,12.287 25.965,12.287c0.3,-0.003 0.598,-0.014 0.891,-0.038c0.124,-0.01 0.245,-0.029 0.367,-0.043c0.207,-0.023 0.412,-0.046 0.614,-0.079c0.151,-0.025 0.298,-0.06 0.446,-0.092c0.168,-0.034 0.336,-0.068 0.502,-0.111c0.163,-0.043 0.322,-0.092 0.483,-0.143c0.143,-0.043 0.285,-0.088 0.425,-0.137c0.172,-0.062 0.341,-0.13 0.509,-0.199c0.121,-0.051 0.241,-0.102 0.359,-0.156c0.18,-0.083 0.357,-0.171 0.532,-0.264c0.098,-0.052 0.194,-0.106 0.291,-0.161c0.189,-0.108 0.376,-0.222 0.56,-0.342c0.071,-0.046 0.14,-0.096 0.21,-0.145c0.202,-0.14 0.403,-0.283 0.598,-0.438c0.036,-0.028 0.069,-0.059 0.104,-0.088c1.082,-0.879 2.051,-1.998 2.893,-3.356c0,0.001 0,0.003 0,0.004c0.008,-0.013 0.015,-0.028 0.023,-0.042c0.253,-0.411 0.495,-0.844 0.724,-1.298c0.014,-0.028 0.028,-0.055 0.042,-0.082c0.48,-0.963 0.907,-2.02 1.275,-3.176c0.008,-0.023 0.014,-0.048 0.021,-0.07c0.167,-0.529 0.321,-1.082 0.463,-1.65c0.023,-0.092 0.046,-0.185 0.068,-0.276c0.135,-0.563 0.26,-1.144 0.372,-1.745c0.009,-0.049 0.02,-0.095 0.028,-0.144c0.122,-0.675 0.229,-1.371 0.321,-2.094c0.001,-0.01 0.002,-0.02 0.002,-0.029c0.083,-0.664 0.15,-1.354 0.206,-2.058c0.014,-0.172 0.025,-0.347 0.037,-0.521c0.04,-0.577 0.07,-1.166 0.092,-1.768c0.006,-0.191 0.015,-0.381 0.02,-0.574c0.02,-0.759 0.028,-1.532 0.019,-2.332c0,-0.017 0,-0.032 0,-0.05c-0.01,-0.813 -0.04,-1.651 -0.081,-2.507c-0.007,-0.243 -0.024,-0.498 -0.038,-0.748zM225.655,88.532c-1.017,-0.141 -2.109,-0.211 -3.21,-0.302c-3.656,-3.657 -4.719,-14.887 -4.719,-27.962c1.026,-12.776 -4.078,-22.525 -12.336,-25.412c-3.06,-1.07 -6.554,-1.187 -10.322,-0.18c-0.006,0 -0.012,-0.001 -0.018,-0.001c-17.66,0 -20.156,-10.723 -20.51,-13.766c-0.492,-7.641 -1.932,-14.445 -8.19,-14.409c-1.388,0.007 -3.011,0.351 -4.914,1.096c-0.758,0.296 -1.479,0.641 -2.169,1.029c-0.048,0.026 -0.091,0.056 -0.138,0.083c-0.294,0.168 -0.584,0.342 -0.866,0.527c-0.075,0.05 -0.147,0.104 -0.222,0.155c-0.248,0.167 -0.493,0.337 -0.732,0.517c-0.094,0.071 -0.183,0.148 -0.276,0.221c-0.212,0.167 -0.424,0.333 -0.628,0.508c-0.109,0.094 -0.214,0.195 -0.321,0.292c-0.18,0.162 -0.361,0.324 -0.536,0.494c-0.12,0.117 -0.235,0.24 -0.354,0.36c-0.153,0.158 -0.309,0.314 -0.457,0.478c-0.129,0.141 -0.253,0.288 -0.378,0.433c-0.131,0.151 -0.263,0.3 -0.389,0.455c-0.135,0.166 -0.266,0.337 -0.397,0.508c-0.108,0.142 -0.22,0.283 -0.326,0.428c-0.139,0.189 -0.272,0.384 -0.406,0.579c-0.092,0.134 -0.186,0.267 -0.276,0.404c-0.139,0.211 -0.274,0.428 -0.408,0.645c-0.078,0.127 -0.157,0.252 -0.234,0.381c-0.138,0.233 -0.272,0.472 -0.406,0.711c-0.065,0.119 -0.133,0.237 -0.196,0.357c-0.137,0.253 -0.269,0.513 -0.398,0.773c-0.057,0.111 -0.113,0.223 -0.168,0.336c-0.132,0.272 -0.26,0.548 -0.386,0.827c-0.048,0.107 -0.097,0.213 -0.145,0.321c-0.126,0.287 -0.247,0.577 -0.367,0.87c-0.043,0.106 -0.086,0.211 -0.129,0.319c-0.117,0.295 -0.23,0.594 -0.342,0.895c-0.024,0.066 -0.051,0.13 -0.075,0.196c0.003,-0.005 0.006,-0.009 0.009,-0.014c-3.166,8.718 -3.787,19.802 -3.465,29.636c31.151,18.697 46.496,40.993 53.67,55.298c13.409,1.718 24.937,-2.494 29.292,-8.23c0.136,-0.179 0.265,-0.358 0.386,-0.54c0.078,-0.116 0.157,-0.232 0.229,-0.35c0.159,-0.26 0.305,-0.521 0.434,-0.786c0.053,-0.104 0.096,-0.209 0.144,-0.314c0.099,-0.222 0.186,-0.445 0.263,-0.669c0.029,-0.083 0.063,-0.165 0.089,-0.249c0.088,-0.29 0.154,-0.582 0.207,-0.875c0.016,-0.091 0.029,-0.182 0.041,-0.273c0.04,-0.288 0.066,-0.576 0.068,-0.866c0.001,-0.021 0.006,-0.043 0.006,-0.065c-0.002,-3.531 -2.21,-4.478 -5.029,-4.869z"></path></g></g></svg>