<svg version="1.1" xmlns="http://www.w3.org/2000/svg" xmlns:xlink="http://www.w3.org/1999/xlink" width="448px" height="512px" viewBox="0,0,224,256"><g fill="#d8ebb5" fill-rule="nonzero" stroke="none" stroke-width="1" stroke-linecap="butt" stroke-linejoin="miter" stroke-miterlimit="10" stroke-dasharray="" stroke-dashoffset="0" font-family="none" font-weight="none" font-size="none" text-anchor="none" style="mix-blend-mode: normal"><g transform="translate(0.14691,0.0001) scale(0.5,0.5)"><path d="M224,144c39.75,0 72,-32.25 72,-72c0,-39.75 -32.2,-72.0004 -72,-72.0004c-39.8,0 -72.9,32.2504 -72.9,72.0004c0,39.75 33.2,72 72.9,72zM415.1,110.8c-13.89,-17.14 -39.06,-19.8 -56.25,-5.906l-51.25,41.506c-47.16,38.19 -120.1,38.19 -167.3,0l-51.13,-41.5c-17.15,-13.9 -42.37,-11.23 -56.25,5.9c-13.9,17.2 -11.26,42.4 5.91,56.3l51.19,41.47c11.73,9.496 24.63,17.16 37.98,23.92l-0.9,247.51c0,17.62 14.38,32 32,32h15.1c17.62,0 32,-14.38 32,-32v-112h32v112c0,17.62 14.38,32 32,32h15.1c17.62,0 32,-14.38 32,-32l-0.0001,-247.5c13.35,-6.756 26.25,-14.42 37.97,-23.91l51.2,-41.47c19.8301,-13.92 21.6301,-39.12 8.6301,-56.32z"></path></g></g></svg>